# xmcd
#
# Track frame offsets:
# 150
# 23572
# 46087
# 51307
# 60685
# 69555
# 87470
# 98947
# 115527
# 130410
# 134642
#
# Disc length: 1963 seconds
#
# Revision: 1
# Processed by: cddbd v1.5.2PL0 Copyright (c) Steve Scherf et al.
# Submitted via: Easy CD Ripper 2.3.10
#
DISCID=9907a90b
DTITLE=Chicago - Chicago II
DYEAR=1970
DGENRE=Blues
TTITLE0=Fancy Colours - Chicago
TTITLE1=25 Or 6 To 4 - Chicago
TTITLE2=Prelude - Chicago
TTITLE3=A.M. Mourning - Chicago
TTITLE4=P.M. Mourning - Chicago
TTITLE5=Memories of Love - Chicago
TTITLE6=It Better End Soon - 1st Movement - Chicago
TTITLE7=It Better End Soon - 2nd Movement - Chicago
TTITLE8=It Better End Soon - 3rd Movement - Chicago
TTITLE9=It Better End Soon - 4th Movement - Chicago
TTITLE10=Where Do We Go From Here? - Chicago
EXTD=
EXTT0=
EXTT1=
EXTT2=
EXTT3=
EXTT4=
EXTT5=
EXTT6=
EXTT7=
EXTT8=
EXTT9=
EXTT10=
PLAYORDER=
